<?xml version="1.0" encoding="UTF-8" standalone="no"?> <!-- Created with Vectornator for iOS (http://vectornator.io/) --><!DOCTYPE svg PUBLIC "-//W3C//DTD SVG 1.1//EN" "http://www.w3.org/Graphics/SVG/1.1/DTD/svg11.dtd">
<svg height="100%" style="fill-rule:nonzero;clip-rule:evenodd;stroke-linecap:round;stroke-linejoin:round;" xmlns:xlink="http://www.w3.org/1999/xlink" xmlns="http://www.w3.org/2000/svg" xml:space="preserve" width="100%" xmlns:vectornator="http://vectornator.io" version="1.1" viewBox="0 0 1024 1024">
<metadata>
<vectornator:setting key="DimensionsVisible" value="1"/>
<vectornator:setting key="PencilOnly" value="0"/>
<vectornator:setting key="SnapToPoints" value="0"/>
<vectornator:setting key="OutlineMode" value="0"/>
<vectornator:setting key="CMYKEnabledKey" value="0"/>
<vectornator:setting key="RulersVisible" value="1"/>
<vectornator:setting key="SnapToEdges" value="0"/>
<vectornator:setting key="GuidesVisible" value="1"/>
<vectornator:setting key="DisplayWhiteBackground" value="0"/>
<vectornator:setting key="doHistoryDisabled" value="0"/>
<vectornator:setting key="SnapToGuides" value="1"/>
<vectornator:setting key="TimeLapseWatermarkDisabled" value="0"/>
<vectornator:setting key="Units" value="Pixels"/>
<vectornator:setting key="DynamicGuides" value="0"/>
<vectornator:setting key="IsolateActiveLayer" value="0"/>
<vectornator:setting key="SnapToGrid" value="0"/>
</metadata>
<defs/>
<g id="Layer 2" vectornator:layerName="Layer 2">
<g opacity="1">
<path d="M253.597+555.934L253.597+500.208L254.086+500.208L291.134+555.934L304.806+555.934L304.806+472.621L289.425+472.621L289.425+528.041L288.876+528.041L251.949+472.621L238.216+472.621L238.216+555.934L253.597+555.934Z" opacity="1" fill="#003d7c"/>
<path d="M352.169+543.482C347.001+543.482+342.841+541.926+339.687+538.813C336.534+535.7+334.957+531.275+334.957+525.538L334.957+472.621L318.478+472.621L318.478+527.796C318.478+533.656+319.82+538.823+322.506+543.299C325.192+547.775+329.057+551.264+334.103+553.767C339.148+556.269+345.17+557.521+352.169+557.521C359.168+557.521+365.18+556.269+370.205+553.767C375.23+551.264+379.086+547.775+381.771+543.299C384.457+538.823+385.799+533.656+385.799+527.796L385.799+472.621L369.32+472.621L369.32+525.538C369.32+531.235+367.743+535.65+364.59+538.783C361.436+541.916+357.296+543.482+352.169+543.482Z" opacity="1" fill="#003d7c"/>
<path d="M394.222+532.252C394.263+535.182+394.853+538.132+395.992+541.102C397.132+544.072+398.942+546.799+401.424+549.281C403.907+551.763+407.202+553.757+411.312+555.262C415.422+556.768+420.488+557.521+426.51+557.521C433.224+557.521+439.042+556.483+443.966+554.408C448.889+552.333+452.714+549.342+455.441+545.436C458.167+541.529+459.53+536.85+459.53+531.397C459.53+526.433+458.513+522.395+456.478+519.282C454.444+516.169+451.738+513.718+448.36+511.927C444.983+510.137+441.24+508.794+437.13+507.899L424.191+504.908C420.447+504.094+417.609+502.843+415.676+501.155C413.743+499.466+412.777+497.36+412.777+494.837C412.777+491.419+414.089+488.734+416.714+486.781C419.338+484.828+422.868+483.851+427.303+483.851C430.64+483.851+433.427+484.4+435.665+485.499C437.903+486.598+439.612+488.042+440.792+489.833C441.972+491.623+442.643+493.556+442.806+495.631L458.309+495.631C458.228+490.626+456.855+486.272+454.189+482.569C451.524+478.867+447.882+475.998+443.264+473.963C438.646+471.929+433.346+470.912+427.364+470.912C421.668+470.912+416.459+471.878+411.739+473.811C407.019+475.744+403.266+478.592+400.478+482.356C397.691+486.12+396.297+490.707+396.297+496.119C396.297+500.758+397.264+504.634+399.197+507.746C401.129+510.859+403.703+513.321+406.918+515.132C410.132+516.942+413.631+518.275+417.416+519.129L430.294+522.12C434.607+523.097+437.822+524.409+439.938+526.057C442.053+527.705+443.111+529.994+443.111+532.923C443.111+535.243+442.501+537.267+441.28+538.996C440.06+540.726+438.29+542.068+435.97+543.025C433.651+543.981+430.803+544.459+427.425+544.459C424.699+544.459+422.288+544.133+420.193+543.482C418.097+542.831+416.327+541.936+414.883+540.797C413.438+539.658+412.319+538.355+411.526+536.891C410.732+535.426+410.275+533.88+410.152+532.252L394.222+532.252Z" opacity="1" fill="#003d7c"/>
</g>
<g opacity="1">
<path d="M490.682+509.608C490.682+504.318+491.394+499.842+492.818+496.18C494.242+492.518+496.318+489.731+499.044+487.818C501.77+485.906+505.066+484.95+508.932+484.95C512.309+484.95+515.239+485.672+517.721+487.116C520.203+488.561+522.136+490.555+523.519+493.098C524.902+495.641+525.615+498.561+525.655+501.856L541.524+501.856C541.524+501.572+541.524+501.307+541.524+501.063C541.524+500.819+541.524+500.575+541.524+500.331C541.524+495.977+540.711+492.009+539.083+488.429C537.455+484.848+535.187+481.756+532.278+479.151C529.368+476.547+525.92+474.543+521.932+473.139C517.944+471.736+513.57+471.034+508.81+471.034C501.404+471.034+495.107+472.59+489.919+475.703C484.731+478.816+480.774+483.251+478.048+489.009C475.322+494.766+473.958+501.653+473.958+509.669L473.958+519.19C473.958+527.125+475.322+533.951+478.048+539.668C480.774+545.385+484.731+549.789+489.919+552.882C495.107+555.974+501.404+557.521+508.81+557.521C515.117+557.521+520.732+556.32+525.655+553.919C530.579+551.519+534.454+548.182+537.282+543.91C540.11+539.637+541.524+534.734+541.524+529.2C541.524+528.915+541.524+528.641+541.524+528.376C541.524+528.112+541.524+527.857+541.524+527.613L525.655+527.613C525.615+530.706+524.902+533.462+523.519+535.884C522.136+538.305+520.203+540.197+517.721+541.56C515.239+542.923+512.309+543.604+508.932+543.604C505.066+543.604+501.77+542.669+499.044+540.797C496.318+538.925+494.242+536.179+492.818+532.557C491.394+528.936+490.682+524.521+490.682+519.312L490.682+509.608Z" opacity="1" fill="#ef7c00"/>
<path d="M603.658+509.12L603.658+519.984C603.658+525.314+602.844+529.75+601.217+533.29C599.589+536.83+597.351+539.464+594.503+541.194C591.655+542.923+588.379+543.788+584.676+543.788C581.014+543.788+577.759+542.923+574.911+541.194C572.062+539.464+569.824+536.83+568.197+533.29C566.569+529.75+565.755+525.314+565.755+519.984L565.755+509.12C565.755+503.749+566.569+499.262+568.197+495.661C569.824+492.06+572.062+489.344+574.911+487.513C577.759+485.682+581.014+484.767+584.676+484.767C588.379+484.767+591.655+485.682+594.503+487.513C597.351+489.344+599.589+492.06+601.217+495.661C602.844+499.262+603.658+503.749+603.658+509.12ZM620.382+519.923L620.382+509.242C620.382+501.389+618.958+494.603+616.109+488.886C613.261+483.17+609.182+478.765+603.872+475.672C598.562+472.58+592.184+471.034+584.737+471.034C577.332+471.034+570.954+472.57+565.603+475.642C560.252+478.714+556.142+483.108+553.274+488.825C550.405+494.542+548.971+501.348+548.971+509.242L548.971+519.923C548.971+527.735+550.395+534.459+553.243+540.095C556.091+545.731+560.181+550.044+565.511+553.034C570.842+556.025+577.21+557.521+584.615+557.521C592.062+557.521+598.45+556.025+603.78+553.034C609.111+550.044+613.21+545.731+616.079+540.095C618.947+534.459+620.382+527.735+620.382+519.923Z" opacity="1" fill="#ef7c00"/>
<path d="M647.054+555.934L647.054+500.208L647.542+500.208L684.591+555.934L698.263+555.934L698.263+472.621L682.882+472.621L682.882+528.041L682.333+528.041L645.406+472.621L631.673+472.621L631.673+555.934L647.054+555.934Z" opacity="1" fill="#ef7c00"/>
<path d="M728.292+555.934L728.292+500.208L728.78+500.208L765.829+555.934L779.5+555.934L779.5+472.621L764.12+472.621L764.12+528.041L763.57+528.041L726.644+472.621L712.911+472.621L712.911+555.934L728.292+555.934Z" opacity="1" fill="#ef7c00"/>
<path d="M847.799+542.445L810.506+542.445L810.506+520.106L845.541+520.106L845.541+507.472L810.506+507.472L810.506+486.109L847.799+486.109L847.799+472.621L794.149+472.621L794.149+555.934L847.799+555.934L847.799+542.445Z" opacity="1" fill="#ef7c00"/>
<path d="M873.25+509.608C873.25+504.318+873.963+499.842+875.387+496.18C876.811+492.518+878.886+489.731+881.612+487.818C884.339+485.906+887.634+484.95+891.5+484.95C894.877+484.95+897.807+485.672+900.289+487.116C902.771+488.561+904.704+490.555+906.087+493.098C907.471+495.641+908.183+498.561+908.224+501.856L924.093+501.856C924.093+501.572+924.093+501.307+924.093+501.063C924.093+500.819+924.093+500.575+924.093+500.331C924.093+495.977+923.279+492.009+921.651+488.429C920.024+484.848+917.755+481.756+914.846+479.151C911.937+476.547+908.488+474.543+904.5+473.139C900.513+471.736+896.139+471.034+891.378+471.034C883.972+471.034+877.676+472.59+872.488+475.703C867.3+478.816+863.342+483.251+860.616+489.009C857.89+494.766+856.527+501.653+856.527+509.669L856.527+519.19C856.527+527.125+857.89+533.951+860.616+539.668C863.342+545.385+867.3+549.789+872.488+552.882C877.676+555.974+883.972+557.521+891.378+557.521C897.685+557.521+903.3+556.32+908.224+553.919C913.147+551.519+917.023+548.182+919.851+543.91C922.679+539.637+924.093+534.734+924.093+529.2C924.093+528.915+924.093+528.641+924.093+528.376C924.093+528.112+924.093+527.857+924.093+527.613L908.224+527.613C908.183+530.706+907.471+533.462+906.087+535.884C904.704+538.305+902.771+540.197+900.289+541.56C897.807+542.923+894.877+543.604+891.5+543.604C887.634+543.604+884.339+542.669+881.612+540.797C878.886+538.925+876.811+536.179+875.387+532.557C873.963+528.936+873.25+524.521+873.25+519.312L873.25+509.608Z" opacity="1" fill="#ef7c00"/>
<path d="M967.123+555.934L967.123+486.415L990.804+486.415L990.804+472.621L926.961+472.621L926.961+486.415L950.643+486.415L950.643+555.934L967.123+555.934Z" opacity="1" fill="#ef7c00"/>
</g>
</g>
<g id="Layer 3" vectornator:layerName="Layer 3">
<g opacity="1">
<path d="M54.0997+480.843L56.4505+476.529L158.477+581.504L156.597+583.9L154.246+583.9L54.0997+480.843ZM164.59+583.9L70.5556+583.9L70.5556+598.28L164.59+598.28L164.59+583.9Z" opacity="1" fill="#ff4081"/>
<path d="M180.575+544.115L178.224+548.429L76.6678+442.496L78.0783+440.1L80.8994+440.1L180.575+544.115ZM156.597+583.9L164.59+598.28L216.308+512L199.852+512L156.597+583.9Z" opacity="1" fill="#9c27b0"/>
<path d="M164.59+440.1L70.5556+440.1L70.5556+425.72L164.59+425.72L164.59+440.1ZM156.597+440.1L153.776+440.1L53.6295+542.677L55.9804+546.991L158.007+442.496L156.597+440.1Z" opacity="1" fill="#00bcd4"/>
<path d="M78.0783+440.1L30.5912+519.669L18.837+512L70.5556+425.72L78.0783+440.1ZM158.007+442.017L156.597+440.1L148.604+440.1L59.2716+471.736L55.5102+477.967L158.007+442.017Z" opacity="1" fill="#ffc107"/>
<path d="M78.5485+583.9L70.5556+598.28L18.837+512L35.2929+512L78.5485+583.9ZM79.959+545.553L79.959+440.1L78.0783+440.1L75.2573+444.893L75.2573+545.553L55.5102+545.553L58.3312+550.347L75.2573+550.347L75.2573+578.628L78.5485+583.9L79.959+583.9L79.959+550.347L176.814+550.347L179.635+545.553C179.635+545.553+79.959+545.553+79.959+545.553Z" opacity="1" fill="#ff5722"/>
<path d="M177.284+474.612L77.6082+582.462L78.5485+583.9L82.78+583.9L179.165+479.405L153.776+583.9L157.067+583.9L159.888+579.107L183.396+484.199L177.284+474.612ZM199.852+512L156.597+440.1L164.59+425.72L216.308+512L199.852+512Z" opacity="1" fill="#03a9f4"/>
</g>
</g>
<g id="Layer 3 copy" vectornator:layerName="Layer 3 copy" visibility="hidden">
<g opacity="1">
<path d="M212.477+368.07L223.337+348.142L694.652+833.074L685.964+844.145L675.105+844.145L212.477+368.07ZM722.888+844.145L288.496+844.145L288.496+910.574L722.888+910.574L722.888+844.145Z" opacity="1" fill="#ff4081"/>
<path d="M796.734+660.358L785.875+680.287L316.731+190.926L323.247+179.855L336.279+179.855L796.734+660.358ZM685.964+844.145L722.888+910.574L961.803+512L885.785+512L685.964+844.145Z" opacity="1" fill="#9c27b0"/>
<path d="M722.888+179.855L288.496+179.855L288.496+113.426L722.888+113.426L722.888+179.855ZM685.964+179.855L672.933+179.855L210.305+653.715L221.165+673.644L692.48+190.926L685.964+179.855Z" opacity="1" fill="#00bcd4"/>
<path d="M323.247+179.855L103.879+547.429L49.5799+512L288.496+113.426L323.247+179.855ZM692.48+188.712L685.964+179.855L649.041+179.855L236.369+325.999L218.993+354.785L692.48+188.712Z" opacity="1" fill="#ffc107"/>
<path d="M325.419+844.145L288.496+910.574L49.5799+512L125.599+512L325.419+844.145ZM331.935+667.001L331.935+179.855L323.247+179.855L310.215+201.998L310.215+667.001L218.993+667.001L232.025+689.144L310.215+689.144L310.215+819.788L325.419+844.145L331.935+844.145L331.935+689.144L779.359+689.144L792.39+667.001C792.39+667.001+331.935+667.001+331.935+667.001Z" opacity="1" fill="#ff5722"/>
<path d="M781.531+339.284L321.075+837.502L325.419+844.145L344.967+844.145L790.218+361.427L672.933+844.145L688.136+844.145L701.168+822.002L809.766+383.57L781.531+339.284ZM885.785+512L685.964+179.855L722.888+113.426L961.803+512L885.785+512Z" opacity="1" fill="#03a9f4"/>
</g>
</g>
</svg>
