<?xml version="1.0" encoding="UTF-8" standalone="no"?> <!-- Created with Vectornator for iOS (http://vectornator.io/) --><!DOCTYPE svg PUBLIC "-//W3C//DTD SVG 1.1//EN" "http://www.w3.org/Graphics/SVG/1.1/DTD/svg11.dtd">
<svg height="100%" style="fill-rule:nonzero;clip-rule:evenodd;stroke-linecap:round;stroke-linejoin:round;" xmlns:xlink="http://www.w3.org/1999/xlink" xmlns="http://www.w3.org/2000/svg" xml:space="preserve" width="100%" xmlns:vectornator="http://vectornator.io" version="1.1" viewBox="0 0 1024 256">
<metadata>
<vectornator:setting key="DimensionsVisible" value="1"/>
<vectornator:setting key="PencilOnly" value="0"/>
<vectornator:setting key="SnapToPoints" value="0"/>
<vectornator:setting key="OutlineMode" value="0"/>
<vectornator:setting key="CMYKEnabledKey" value="0"/>
<vectornator:setting key="RulersVisible" value="1"/>
<vectornator:setting key="SnapToEdges" value="0"/>
<vectornator:setting key="GuidesVisible" value="1"/>
<vectornator:setting key="DisplayWhiteBackground" value="0"/>
<vectornator:setting key="doHistoryDisabled" value="0"/>
<vectornator:setting key="SnapToGuides" value="1"/>
<vectornator:setting key="TimeLapseWatermarkDisabled" value="0"/>
<vectornator:setting key="Units" value="Points"/>
<vectornator:setting key="DynamicGuides" value="0"/>
<vectornator:setting key="IsolateActiveLayer" value="0"/>
<vectornator:setting key="SnapToGrid" value="0"/>
</metadata>
<defs/>
<g id="Layer 1" vectornator:layerName="Layer 1">
<g opacity="1">
<path d="M251.528+168.965L251.528+111.456L252.032+111.456L290.266+168.965L304.375+168.965L304.375+82.9857L288.502+82.9857L288.502+140.179L287.935+140.179L249.827+82.9857L235.655+82.9857L235.655+168.965L251.528+168.965Z" opacity="1" fill="#003d7c"/>
<path d="M353.254+156.115C347.921+156.115+343.627+154.509+340.373+151.297C337.119+148.084+335.491+143.517+335.491+137.597L335.491+82.9857L318.485+82.9857L318.485+139.927C318.485+145.974+319.87+151.307+322.642+155.926C325.413+160.545+329.403+164.146+334.61+166.729C339.817+169.311+346.031+170.602+353.254+170.602C360.477+170.602+366.681+169.311+371.867+166.729C377.053+164.146+381.032+160.545+383.803+155.926C386.575+151.307+387.961+145.974+387.961+139.927L387.961+82.9857L370.954+82.9857L370.954+137.597C370.954+143.475+369.327+148.032+366.072+151.265C362.818+154.498+358.545+156.115+353.254+156.115Z" opacity="1" fill="#003d7c"/>
<path d="M396.653+144.525C396.695+147.549+397.304+150.593+398.48+153.659C399.656+156.724+401.524+159.538+404.086+162.099C406.647+164.661+410.049+166.718+414.29+168.272C418.531+169.826+423.759+170.602+429.974+170.602C436.903+170.602+442.907+169.532+447.989+167.39C453.07+165.248+457.017+162.162+459.83+158.131C462.644+154.1+464.051+149.27+464.051+143.643C464.051+138.52+463.001+134.353+460.901+131.14C458.802+127.928+456.009+125.398+452.524+123.55C449.038+121.703+445.175+120.317+440.934+119.393L427.58+116.307C423.717+115.467+420.788+114.175+418.793+112.433C416.799+110.69+415.802+108.517+415.802+105.913C415.802+102.386+417.156+99.6147+419.864+97.599C422.573+95.5834+426.216+94.5756+430.793+94.5756C434.236+94.5756+437.113+95.1425+439.422+96.2763C441.732+97.4101+443.495+98.9008+444.713+100.748C445.931+102.596+446.624+104.591+446.792+106.732L462.791+106.732C462.707+101.567+461.29+97.0741+458.539+93.2528C455.789+89.4315+452.03+86.4711+447.264+84.3715C442.498+82.2719+437.029+81.2221+430.856+81.2221C424.977+81.2221+419.602+82.2194+414.731+84.214C409.86+86.2086+405.986+89.1481+403.109+93.0324C400.233+96.9167+398.795+101.651+398.795+107.236C398.795+112.023+399.792+116.023+401.787+119.236C403.781+122.448+406.437+124.988+409.755+126.857C413.072+128.726+416.683+130.101+420.589+130.983L433.879+134.069C438.33+135.077+441.648+136.431+443.831+138.132C446.015+139.833+447.107+142.195+447.107+145.218C447.107+147.612+446.477+149.701+445.217+151.486C443.957+153.27+442.131+154.656+439.737+155.643C437.344+156.63+434.404+157.123+430.919+157.123C428.105+157.123+425.617+156.787+423.455+156.115C421.292+155.443+419.465+154.519+417.975+153.344C416.484+152.168+415.329+150.824+414.51+149.312C413.691+147.801+413.219+146.205+413.093+144.525L396.653+144.525Z" opacity="1" fill="#003d7c"/>
</g>
<g opacity="1">
<path d="M499.943+121.157C499.943+115.698+500.677+111.079+502.147+107.299C503.617+103.52+505.758+100.643+508.572+98.6698C511.385+96.6962+514.787+95.7094+518.776+95.7094C522.261+95.7094+525.285+96.4547+527.846+97.9455C530.408+99.4362+532.403+101.494+533.83+104.118C535.258+106.743+535.993+109.756+536.035+113.157L552.412+113.157C552.412+112.863+552.412+112.59+552.412+112.338C552.412+112.086+552.412+111.834+552.412+111.582C552.412+107.089+551.572+102.995+549.892+99.2997C548.213+95.6044+545.872+92.413+542.869+89.7255C539.867+87.038+536.308+84.9699+532.193+83.5211C528.077+82.0724+523.563+81.348+518.65+81.348C511.007+81.348+504.509+82.9543+499.155+86.1667C493.801+89.3791+489.717+93.9562+486.904+99.8981C484.09+105.84+482.684+112.947+482.684+121.22L482.684+131.046C482.684+139.234+484.09+146.278+486.904+152.178C489.717+158.078+493.801+162.624+499.155+165.815C504.509+169.007+511.007+170.602+518.65+170.602C525.159+170.602+530.954+169.364+536.035+166.886C541.116+164.409+545.116+160.965+548.034+156.556C550.953+152.147+552.412+147.087+552.412+141.376C552.412+141.082+552.412+140.798+552.412+140.526C552.412+140.253+552.412+139.99+552.412+139.738L536.035+139.738C535.993+142.93+535.258+145.775+533.83+148.273C532.403+150.772+530.408+152.724+527.846+154.131C525.285+155.538+522.261+156.241+518.776+156.241C514.787+156.241+511.385+155.275+508.572+153.344C505.758+151.412+503.617+148.578+502.147+144.84C500.677+141.103+499.943+136.547+499.943+131.172L499.943+121.157Z" opacity="1" fill="#ef7c00"/>
<path d="M616.534+120.653L616.534+131.865C616.534+137.366+615.694+141.943+614.014+145.596C612.335+149.249+610.025+151.968+607.086+153.753C604.146+155.538+600.766+156.43+596.944+156.43C593.165+156.43+589.806+155.538+586.866+153.753C583.927+151.968+581.617+149.249+579.938+145.596C578.258+141.943+577.418+137.366+577.418+131.865L577.418+120.653C577.418+115.11+578.258+110.48+579.938+106.764C581.617+103.048+583.927+100.245+586.866+98.3549C589.806+96.4652+593.165+95.5204+596.944+95.5204C600.766+95.5204+604.146+96.4652+607.086+98.3549C610.025+100.245+612.335+103.048+614.014+106.764C615.694+110.48+616.534+115.11+616.534+120.653ZM633.793+131.802L633.793+120.779C633.793+112.674+632.323+105.672+629.383+99.7721C626.444+93.8722+622.234+89.3266+616.754+86.1352C611.274+82.9438+604.692+81.348+597.007+81.348C589.365+81.348+582.783+82.9333+577.261+86.1037C571.739+89.2741+567.497+93.8092+564.537+99.7091C561.577+105.609+560.096+112.632+560.096+120.779L560.096+131.802C560.096+139.864+561.566+146.803+564.506+152.619C567.445+158.435+571.665+162.886+577.166+165.973C582.667+169.059+589.239+170.602+596.882+170.602C604.566+170.602+611.159+169.059+616.66+165.973C622.161+162.886+626.392+158.435+629.352+152.619C632.312+146.803+633.793+139.864+633.793+131.802Z" opacity="1" fill="#ef7c00"/>
<path d="M661.319+168.965L661.319+111.456L661.822+111.456L700.056+168.965L714.166+168.965L714.166+82.9857L698.293+82.9857L698.293+140.179L697.726+140.179L659.618+82.9857L645.445+82.9857L645.445+168.965L661.319+168.965Z" opacity="1" fill="#ef7c00"/>
<path d="M745.156+168.965L745.156+111.456L745.66+111.456L783.894+168.965L798.003+168.965L798.003+82.9857L782.13+82.9857L782.13+140.179L781.563+140.179L743.455+82.9857L729.283+82.9857L729.283+168.965L745.156+168.965Z" opacity="1" fill="#ef7c00"/>
<path d="M868.487+155.044L830.001+155.044L830.001+131.991L866.156+131.991L866.156+118.952L830.001+118.952L830.001+96.9062L868.487+96.9062L868.487+82.9857L813.12+82.9857L813.12+168.965L868.487+168.965L868.487+155.044Z" opacity="1" fill="#ef7c00"/>
<path d="M894.753+121.157C894.753+115.698+895.488+111.079+896.958+107.299C898.427+103.52+900.569+100.643+903.382+98.6698C906.196+96.6962+909.597+95.7094+913.587+95.7094C917.072+95.7094+920.095+96.4547+922.657+97.9455C925.218+99.4362+927.213+101.494+928.641+104.118C930.069+106.743+930.803+109.756+930.845+113.157L947.222+113.157C947.222+112.863+947.222+112.59+947.222+112.338C947.222+112.086+947.222+111.834+947.222+111.582C947.222+107.089+946.382+102.995+944.703+99.2997C943.023+95.6044+940.682+92.413+937.68+89.7255C934.677+87.038+931.118+84.9699+927.003+83.5211C922.888+82.0724+918.374+81.348+913.461+81.348C905.818+81.348+899.32+82.9543+893.966+86.1667C888.612+89.3791+884.528+93.9562+881.715+99.8981C878.901+105.84+877.494+112.947+877.494+121.22L877.494+131.046C877.494+139.234+878.901+146.278+881.715+152.178C884.528+158.078+888.612+162.624+893.966+165.815C899.32+169.007+905.818+170.602+913.461+170.602C919.969+170.602+925.764+169.364+930.845+166.886C935.926+164.409+939.926+160.965+942.845+156.556C945.763+152.147+947.222+147.087+947.222+141.376C947.222+141.082+947.222+140.798+947.222+140.526C947.222+140.253+947.222+139.99+947.222+139.738L930.845+139.738C930.803+142.93+930.069+145.775+928.641+148.273C927.213+150.772+925.218+152.724+922.657+154.131C920.095+155.538+917.072+156.241+913.587+156.241C909.597+156.241+906.196+155.275+903.382+153.344C900.569+151.412+898.427+148.578+896.958+144.84C895.488+141.103+894.753+136.547+894.753+131.172L894.753+121.157Z" opacity="1" fill="#ef7c00"/>
<path d="M991.629+168.965L991.629+97.2211L1016.07+97.2211L1016.07+82.9857L950.183+82.9857L950.183+97.2211L974.622+97.2211L974.622+168.965L991.629+168.965Z" opacity="1" fill="#ef7c00"/>
</g>
<g opacity="1">
<path d="M47.0701+94.0309L49.5097+89.3275L155.386+203.777L153.435+206.39L150.995+206.39L47.0701+94.0309ZM161.729+206.39L64.147+206.39L64.147+222.068L161.729+222.068L161.729+206.39Z" opacity="1" fill="#ff4081"/>
<path d="M178.318+163.014L175.879+167.718L70.4898+52.2227L71.9536+49.6097L74.881+49.6097L178.318+163.014ZM153.435+206.39L161.729+222.068L215.399+128L198.322+128L153.435+206.39Z" opacity="1" fill="#9c27b0"/>
<path d="M161.729+49.6097L64.147+49.6097L64.147+33.9317L161.729+33.9317L161.729+49.6097ZM153.435+49.6097L150.507+49.6097L46.5822+161.447L49.0218+166.15L154.898+52.2227L153.435+49.6097Z" opacity="1" fill="#00bcd4"/>
<path d="M71.9536+49.6097L22.6746+136.362L10.4768+128L64.147+33.9317L71.9536+49.6097ZM154.898+51.7001L153.435+49.6097L145.14+49.6097L52.4371+84.1014L48.5338+90.8953L154.898+51.7001Z" opacity="1" fill="#ffc107"/>
<path d="M72.4415+206.39L64.147+222.068L10.4768+128L27.5537+128L72.4415+206.39ZM73.9052+164.582L73.9052+49.6097L71.9536+49.6097L69.0261+54.8357L69.0261+164.582L48.5339+164.582L51.4613+169.808L69.0261+169.808L69.0261+200.642L72.4415+206.39L73.9052+206.39L73.9052+169.808L174.415+169.808L177.342+164.582C177.342+164.582+73.9052+164.582+73.9052+164.582Z" opacity="1" fill="#ff5722"/>
<path d="M174.903+87.2371L71.4657+204.822L72.4415+206.39L76.8327+206.39L176.854+92.4631L150.507+206.39L153.923+206.39L156.85+201.164L181.246+97.6891L174.903+87.2371ZM198.322+128L153.435+49.6097L161.729+33.9317L215.399+128L198.322+128Z" opacity="1" fill="#03a9f4"/>
</g>
</g>
</svg>
